HIERARCHY
ROOT hip
{
	OFFSET 0.000000 0.000000 0.000000 
	CHANNELS 6 Xposition Yposition Zposition Xrotation Zrotation Yrotation
	JOINT abdomen
	{
		OFFSET 0.000000 3.402643 0.000000 
		CHANNELS 3 Xrotation Zrotation Yrotation
		JOINT chest
		{
			OFFSET 0.000000 8.438565 -0.680529 
			CHANNELS 3 Xrotation Zrotation Yrotation
			JOINT neck
			{
				OFFSET 0.000000 10.207942 -0.272212 
				CHANNELS 3 Xrotation Zrotation Yrotation
				JOINT head
				{
					OFFSET 0.000000 3.130431 0.000000 
					CHANNELS 3 Xrotation Zrotation Yrotation
					End Site
					{
						OFFSET 0.000000 3.130435 0.000000 
					}
				}
			}
			JOINT lCollar
			{
				OFFSET 3.470700 6.669187 -0.816635 
				CHANNELS 3 Yrotation Zrotation Xrotation
				JOINT lShldr
				{
					OFFSET 3.198488 0.000000 0.000000 
					CHANNELS 3 Zrotation Yrotation Xrotation
					JOINT lForeArm
					{
						OFFSET 10.139888 0.000000 0.000000 
						CHANNELS 3 Yrotation Zrotation Xrotation
						JOINT lHand
						{
							OFFSET 8.370511 0.000000 0.000000 
							CHANNELS 3 Zrotation Yrotation Xrotation
							End Site
							{
								OFFSET 4.083176 0.000000 0.000000 
							}
						}
					}
				}
			}
			JOINT rCollar
			{
				OFFSET -3.470700 6.669187 -0.816635 
				CHANNELS 3 Yrotation Zrotation Xrotation
				JOINT rShldr
				{
					OFFSET -3.198488 0.000000 0.000000 
					CHANNELS 3 Zrotation Yrotation Xrotation
					JOINT rForeArm
					{
						OFFSET -10.139888 0.000000 0.000000 
						CHANNELS 3 Yrotation Zrotation Xrotation
						JOINT rHand
						{
							OFFSET -8.370511 0.000000 0.000000 
							CHANNELS 3 Zrotation Yrotation Xrotation
							End Site
							{
								OFFSET -4.083176 0.000000 0.000000 
							}
						}
					}
				}
			}
		}
	}
	JOINT lThigh
	{
		OFFSET 5.308129 -1.633274 1.361059 
		CHANNELS 3 Xrotation Zrotation Yrotation
		JOINT lShin
		{
			OFFSET -2.041588 -20.007561 0.000000 
			CHANNELS 3 Xrotation Zrotation Yrotation
			JOINT lFoot
			{
				OFFSET 0.000000 -19.190928 -1.224953 
				CHANNELS 3 Xrotation Yrotation Zrotation
				End Site
				{
					OFFSET 0.000000 -2.449906 4.627600 
				}
			}
		}
	}
	JOINT rThigh
	{
		OFFSET -5.308129 -1.633274 1.361059 
		CHANNELS 3 Xrotation Zrotation Yrotation
		JOINT rShin
		{
			OFFSET 2.041588 -20.007561 0.000000 
			CHANNELS 3 Xrotation Zrotation Yrotation
			JOINT rFoot
			{
				OFFSET 0.000000 -19.190928 -1.224953 
				CHANNELS 3 Xrotation Yrotation Zrotation
				End Site
				{
					OFFSET 0.000000 -2.449906 4.627600 
				}
			}
		}
	}
}
MOTION
Frames: 13
Frame Time: 0.016667
-0.657108 21.141821 -16.144522 -15.209826 -12.303772 0.708648 60.124645 15.870800 9.981627 6.190314 -1.025183 2.881024 -8.492088 -2.292781 0.317197 -4.419437 -7.094133 11.435712 -15.105563 4.532421 0.236371 -53.614590 -44.613533 13.268358 -93.212013 -2.476718 0.020637 -28.699789 3.959415 13.757138 23.136185 2.319818 -0.127110 68.240845 20.299767 13.662365 45.868916 5.000000 8.409864 -9.485603 -12.092677 39.714310 -95.562439 12.841857 -12.931700 137.085892 5.810084 -4.945411 -27.403391 16.179441 -0.017474 -25.485451 -1.356886 -17.138687 144.989136 -0.986220 0.526806 -80.568161 -4.747982 -3.379953 
-0.662839 21.142740 -16.144791 -15.219096 -12.264712 0.708651 60.105160 15.857887 9.980490 6.180705 -1.034954 2.851731 -8.472610 -2.302437 0.318657 -4.398497 -7.076445 11.376379 -15.164075 4.512916 0.235366 -53.591225 -44.543118 13.243886 -93.221733 -2.427965 0.021005 -28.732533 3.878103 13.657495 23.155695 2.310062 -0.126604 68.261955 20.298531 13.681657 45.823341 5.000000 8.389297 -9.419601 -12.095422 39.690792 -95.542755 12.851564 -12.940077 137.085297 5.790463 -4.955341 -27.404123 16.165964 -0.061269 -25.492659 -1.384797 -17.134594 144.982285 -0.967396 0.500568 -80.587921 -4.756698 -3.382911 
-0.668997 21.143677 -16.145378 -15.216608 -12.235444 0.699110 60.072968 15.840479 9.965695 6.170746 -1.044718 2.851730 -8.462899 -2.312093 0.320117 -4.382670 -7.077652 11.326735 -15.212824 4.493411 0.234361 -53.557030 -44.493080 13.220468 -93.241272 -2.398704 0.020179 -28.745480 3.796807 13.568431 23.165098 2.313902 -0.117633 68.261871 20.314348 13.696713 45.775276 5.000000 8.383833 -9.373282 -12.094768 39.661915 -95.533020 12.861291 -12.949170 137.095428 5.789627 -4.946049 -27.385159 16.169744 -0.096450 -25.481625 -1.404027 -17.121342 144.983154 -0.957532 0.501813 -80.627060 -4.762117 -3.397468 
-0.675583 21.144634 -16.146280 -15.204484 -12.215940 0.687499 60.039787 15.824657 9.945085 6.170390 -1.044711 2.861493 -8.453187 -2.321748 0.321577 -4.369983 -7.088192 11.287982 -15.242042 4.473906 0.233356 -53.526920 -44.465904 13.206545 -93.251022 -2.359701 0.020017 -28.730026 3.714409 13.511617 23.174862 2.313902 -0.117633 68.273743 20.318790 13.718357 45.734550 5.000000 8.390282 -9.340283 -12.083203 39.627716 -95.530952 12.881076 -12.940806 137.085892 5.810081 -4.945415 -27.416512 16.128540 -0.121036 -25.511171 -1.413882 -17.102081 144.983154 -0.957538 0.501798 -80.626999 -4.738976 -3.371113 
-0.682169 21.145586 -16.147186 -15.192366 -12.196435 0.677957 60.008335 15.815827 9.928437 6.179800 -1.044703 2.871255 -8.453242 -2.331403 0.323036 -4.355361 -7.089151 11.248025 -15.271259 4.454401 0.232351 -53.495281 -44.434010 13.177335 -93.260788 -2.330449 0.019308 -28.721403 3.647333 13.457341 23.174845 2.304150 -0.117127 68.273666 20.334606 13.733415 45.696316 5.000000 8.383307 -9.315732 -12.077552 39.602882 -95.528885 12.900862 -12.932440 137.076645 5.839365 -4.941024 -27.429428 16.093361 -0.190406 -25.511330 -1.423787 -17.081314 144.983887 -0.957456 0.483195 -80.666489 -4.727592 -3.340586 
-0.689697 21.146492 -16.148199 -15.182364 -12.176904 0.677959 59.998020 15.790301 9.932915 6.170212 -1.044707 2.861491 -8.453297 -2.341059 0.324496 -4.356065 -7.098969 11.239542 -15.280909 4.425143 0.230843 -53.476967 -44.426571 13.198813 -93.240990 -2.320699 0.027967 -28.708061 3.562406 13.435455 23.165056 2.294397 -0.116622 68.294708 20.349150 13.764394 45.656013 5.000000 8.402018 -9.296098 -12.055067 39.561310 -95.536537 12.910389 -12.912421 137.067505 5.862439 -4.932559 -27.421238 16.087433 -0.196296 -25.542818 -1.424542 -17.044445 144.986206 -0.928120 0.495772 -80.686607 -4.748911 -3.335476 
-0.697227 21.147394 -16.149214 -15.170142 -12.147634 0.668415 59.968727 15.775869 9.945084 6.160428 -1.054474 2.851727 -8.453406 -2.360370 0.327416 -4.347001 -7.108788 11.229853 -15.280828 4.405638 0.229838 -53.458675 -44.419159 13.213454 -93.230942 -2.310943 0.036496 -28.683113 3.483548 13.408806 23.165035 2.284644 -0.116117 68.315750 20.363672 13.795382 45.617188 5.000000 8.420167 -9.260391 -12.032815 39.508347 -95.536537 12.910384 -12.912420 137.048187 5.862430 -4.925381 -27.414812 16.081280 -0.211551 -25.553137 -1.424726 -17.035355 144.986572 -0.928079 0.486470 -80.736221 -4.753470 -3.304061 
-0.704891 21.148296 -16.150553 -15.160143 -12.128105 0.668417 59.945625 15.760766 9.933821 6.160607 -1.054478 2.851728 -8.463227 -2.370026 0.328876 -4.345783 -7.109027 11.220168 -15.280028 4.388706 0.219439 -53.441341 -44.425213 13.220528 -93.221062 -2.291444 0.039918 -28.656551 3.418761 13.408337 23.164997 2.265139 -0.115106 68.327629 20.368076 13.817039 45.585476 5.000000 8.445909 -9.253532 -12.025352 39.468670 -95.556641 12.920181 -12.925884 137.057373 5.852667 -4.938270 -27.384706 16.058960 -0.254889 -25.582691 -1.434579 -17.016090 144.988358 -0.908345 0.488938 -80.756493 -4.786673 -3.304960 
-0.712688 21.149204 -16.152216 -15.152121 -12.098783 0.677968 59.932999 15.757870 9.928271 6.160594 -1.064245 2.841964 -8.463339 -2.389337 0.331796 -4.356244 -7.118845 11.210480 -15.270225 4.378952 0.218936 -53.445999 -44.439369 13.245961 -93.211342 -2.281701 0.038285 -28.628452 3.368009 13.433466 23.164978 2.255387 -0.114601 68.327560 20.383877 13.832113 45.562107 5.000000 8.469028 -9.268453 -12.013022 39.435024 -95.555817 12.920280 -12.914371 137.046860 5.862276 -4.962248 -27.353228 16.062244 -0.282616 -25.583214 -1.434781 -17.006491 144.990005 -0.898396 0.471547 -80.796135 -4.783055 -3.273000 
-0.720484 21.150106 -16.153881 -15.134442 -12.079231 0.687518 59.918751 15.745957 9.916641 6.160584 -1.074012 2.841966 -8.473218 -2.408648 0.334715 -4.353805 -7.119325 11.189892 -15.270870 4.356875 0.227325 -53.429607 -44.458885 13.252291 -93.201645 -2.281710 0.036112 -28.590868 3.314955 13.459102 23.164957 2.245634 -0.114095 68.326607 20.396313 13.838056 45.538738 5.000000 8.492157 -9.285628 -12.011413 39.380440 -95.556641 12.920181 -12.925885 137.035706 5.852216 -4.996140 -27.341122 16.048319 -0.317152 -25.591755 -1.453964 -16.994230 144.981903 -0.889282 0.453806 -80.787186 -4.788267 -3.219971 
-0.728592 21.151066 -16.155272 -15.136412 -12.069440 0.697070 59.908981 15.745959 9.916640 6.160218 -1.074005 2.851727 -8.502627 -2.427959 0.337635 -4.338626 -7.128426 11.210478 -15.231016 4.339936 0.216923 -53.432133 -44.503757 13.283323 -93.192192 -2.281730 0.026100 -28.552872 3.276861 13.532146 23.164936 2.235881 -0.113590 68.326538 20.412115 13.853128 45.513660 5.000000 8.511479 -9.294997 -11.965678 39.335495 -95.567421 12.920113 -12.935951 137.046478 5.875160 -4.977556 -27.329517 16.030113 -0.342551 -25.613293 -1.444836 -16.977631 144.983353 -0.869811 0.465120 -80.797379 -4.791579 -3.196319 
-0.736702 21.152025 -16.156658 -15.126646 -12.069441 0.697070 59.910683 15.752955 9.923253 6.169604 -1.083765 2.851726 -8.532039 -2.447270 0.340555 -4.322230 -7.137764 11.220164 -15.201680 4.330178 0.216419 -53.425976 -44.538311 13.302828 -93.182716 -2.291503 0.016697 -28.515476 3.234008 13.596573 23.155134 2.216376 -0.112579 68.323738 20.433617 13.855887 45.487522 5.000000 8.543708 -9.310768 -11.927525 39.292488 -95.578194 12.920043 -12.946014 137.027130 5.884839 -4.974955 -27.323208 16.027180 -0.369514 -25.603859 -1.435149 -16.988308 144.982071 -0.879495 0.473657 -80.807465 -4.775977 -3.153623 
-0.744999 21.152943 -16.158047 -15.118844 -12.059651 0.708661 59.910957 15.739146 9.923378 6.169221 -1.093525 2.861489 -8.551685 -2.466582 0.343474 -4.323452 -7.137524 11.229851 -15.172313 4.310669 0.215412 -53.415165 -44.585411 13.327022 -93.172958 -2.281760 0.016223 -28.475666 3.204071 13.664861 23.155134 2.216376 -0.112579 68.320946 20.455118 13.858649 45.482262 5.000000 8.564485 -9.340647 -11.890786 39.251427 -95.608246 12.929860 -12.958044 137.036621 5.884824 -4.983137 -27.291111 16.024834 -0.375538 -25.607023 -1.423223 -16.960743 144.983612 -0.863968 0.472908 -80.827339 -4.755754 -3.103930 
